<svg xmlns="http://www.w3.org/2000/svg" xmlns:xlink="http://www.w3.org/1999/xlink" viewBox="0 0 101 78" version="1.1" x="0px" y="0px"><title>Fill 1</title><desc>Created with Sketch.</desc><g stroke="none" stroke-width="1" fill="none" fill-rule="evenodd"><g fill="#000000"><path d="M10.0752,14.4987 C10.0312,14.7177 10.0002,14.9387 10.0002,15.1657 L10.0002,18.4997 C10.0002,21.3967 13.7332,23.6657 18.5002,23.6657 C23.2662,23.6657 27.0002,21.3967 27.0002,18.4997 L27.0002,15.1657 C27.0002,12.2697 23.2662,9.9997 18.5002,9.9997 C18.3222,9.9997 18.1492,10.0087 17.9742,10.0157 L26.8202,4.9947 C26.7872,5.0997 26.7682,5.2077 26.7462,5.3147 C26.7352,5.3697 26.7172,5.4217 26.7082,5.4767 C26.6812,5.6487 26.6662,5.8227 26.6662,5.9997 L26.6662,9.3327 C26.6662,12.2297 30.4002,14.4997 35.1662,14.4997 C39.9332,14.4997 43.6662,12.2297 43.6662,9.3327 L43.6662,8.2617 L47.0672,10.0247 C46.8572,10.1097 46.6622,10.2047 46.4672,10.2997 C46.4432,10.3117 46.4162,10.3227 46.3912,10.3347 C46.2182,10.4207 46.0562,10.5137 45.8952,10.6077 C45.8462,10.6377 45.7952,10.6657 45.7462,10.6967 C45.5902,10.7927 45.4412,10.8927 45.2992,10.9967 C45.2582,11.0257 45.2192,11.0567 45.1792,11.0867 C44.7512,11.4137 44.3922,11.7707 44.1062,12.1557 C44.0622,12.2147 44.0142,12.2727 43.9732,12.3327 C43.9122,12.4257 43.8602,12.5197 43.8062,12.6147 C43.7542,12.7087 43.7042,12.8027 43.6602,12.8987 C43.6212,12.9827 43.5862,13.0677 43.5542,13.1537 C43.5102,13.2737 43.4752,13.3957 43.4442,13.5187 C43.4272,13.5887 43.4062,13.6577 43.3932,13.7287 C43.3562,13.9267 43.3332,14.1277 43.3332,14.3327 L43.3332,17.6657 C43.3332,20.5637 47.0672,22.8327 51.8332,22.8327 C56.6002,22.8327 60.3332,20.5637 60.3332,17.6657 L60.3332,16.9047 L63.4042,18.4957 C63.2932,18.5447 63.1942,18.6017 63.0882,18.6537 L63.0382,18.6787 C62.0042,19.1947 61.2012,19.8517 60.6812,20.6057 C60.6692,20.6227 60.6572,20.6397 60.6452,20.6567 C60.5612,20.7827 60.4862,20.9117 60.4172,21.0417 C60.3882,21.0987 60.3612,21.1567 60.3332,21.2147 C60.2842,21.3227 60.2372,21.4307 60.1992,21.5417 C60.1642,21.6387 60.1402,21.7367 60.1152,21.8357 C60.0942,21.9187 60.0682,22.0007 60.0542,22.0857 C60.0202,22.2757 59.9992,22.4697 59.9992,22.6657 L59.9992,25.9997 C59.9992,28.8967 63.7332,31.1657 68.4992,31.1657 C73.2662,31.1657 76.9992,28.8967 76.9992,25.9997 L76.9992,25.5457 L79.3742,26.7767 C79.3162,26.8027 79.2642,26.8327 79.2072,26.8587 C79.0412,26.9337 78.8792,27.0117 78.7232,27.0947 C78.6392,27.1387 78.5572,27.1847 78.4762,27.2307 C78.3242,27.3187 78.1782,27.4097 78.0362,27.5037 C77.9712,27.5477 77.9052,27.5897 77.8432,27.6337 C77.6582,27.7657 77.4832,27.9037 77.3212,28.0467 C77.3112,28.0557 77.2992,28.0647 77.2882,28.0737 C77.1112,28.2327 76.9502,28.3987 76.8032,28.5707 C76.7772,28.6017 76.7552,28.6337 76.7292,28.6657 C76.6172,28.8037 76.5132,28.9447 76.4202,29.0907 C76.3882,29.1407 76.3592,29.1927 76.3292,29.2437 C76.2542,29.3747 76.1872,29.5077 76.1282,29.6427 C76.1032,29.7007 76.0782,29.7587 76.0562,29.8167 C76.0052,29.9547 75.9652,30.0947 75.9322,30.2367 C75.9192,30.2927 75.9022,30.3467 75.8912,30.4027 C75.8562,30.5987 75.8332,30.7967 75.8332,30.9997 L75.8332,34.3327 C75.8332,37.2297 79.5672,39.4997 84.3332,39.4997 C89.1002,39.4997 92.8332,37.2297 92.8332,34.3327 L92.8332,33.7557 L97.2382,36.0397 L68.4782,52.3617 L3.0962,18.4597 L10.0752,14.4987 Z M18.5002,18.3327 C14.6692,18.3327 12.0002,16.6647 12.0002,15.1657 C12.0002,13.6687 14.6692,11.9997 18.5002,11.9997 C22.3302,11.9997 25.0002,13.6687 25.0002,15.1657 C25.0002,16.6647 22.3302,18.3327 18.5002,18.3327 L18.5002,18.3327 Z M24.9992,18.5317 C24.9622,20.0207 22.3042,21.6657 18.5002,21.6657 C14.6962,21.6657 12.0372,20.0207 12.0002,18.5317 C12.0562,18.5717 12.1212,18.6067 12.1792,18.6457 C12.2992,18.7267 12.4192,18.8067 12.5462,18.8827 C12.6302,18.9327 12.7192,18.9787 12.8062,19.0257 C12.9322,19.0947 13.0592,19.1617 13.1922,19.2257 C13.2872,19.2717 13.3862,19.3147 13.4842,19.3577 C13.6192,19.4167 13.7552,19.4737 13.8962,19.5287 C14.0002,19.5687 14.1062,19.6067 14.2132,19.6437 C14.3572,19.6947 14.5042,19.7417 14.6542,19.7867 C14.7652,19.8207 14.8772,19.8537 14.9912,19.8837 C15.1462,19.9257 15.3052,19.9637 15.4662,19.9997 C15.5802,20.0257 15.6942,20.0527 15.8112,20.0757 C15.9832,20.1087 16.1582,20.1367 16.3342,20.1637 C16.4472,20.1817 16.5582,20.2007 16.6732,20.2157 C16.8692,20.2407 17.0712,20.2587 17.2732,20.2757 C17.3732,20.2847 17.4702,20.2967 17.5712,20.3027 C17.8762,20.3217 18.1852,20.3327 18.5002,20.3327 C18.8142,20.3327 19.1242,20.3217 19.4292,20.3027 C19.5302,20.2967 19.6272,20.2847 19.7262,20.2757 C19.9292,20.2587 20.1302,20.2407 20.3272,20.2157 C20.4422,20.2007 20.5532,20.1817 20.6652,20.1637 C20.8422,20.1367 21.0172,20.1087 21.1882,20.0757 C21.3052,20.0527 21.4192,20.0257 21.5342,19.9997 C21.6952,19.9637 21.8532,19.9257 22.0092,19.8837 C22.1232,19.8537 22.2342,19.8207 22.3462,19.7867 C22.4952,19.7417 22.6422,19.6947 22.7862,19.6437 C22.8942,19.6067 22.9992,19.5687 23.1042,19.5287 C23.2442,19.4737 23.3812,19.4167 23.5152,19.3577 C23.6142,19.3147 23.7122,19.2717 23.8072,19.2257 C23.9402,19.1617 24.0672,19.0947 24.1932,19.0257 C24.2812,18.9787 24.3692,18.9327 24.4532,18.8827 C24.5812,18.8067 24.7012,18.7267 24.8212,18.6457 C24.8792,18.6067 24.9432,18.5717 24.9992,18.5317 L24.9992,18.5317 Z M41.6662,5.9997 C41.6662,6.1267 41.6402,6.2557 41.6032,6.3837 C41.5582,6.5387 41.4942,6.6937 41.3942,6.8487 C41.3942,6.8487 41.3942,6.8497 41.3932,6.8497 C40.7362,7.8697 38.9182,8.8397 36.4622,9.0987 C36.4482,9.0997 36.4332,9.1007 36.4192,9.1017 C36.0172,9.1427 35.6002,9.1657 35.1662,9.1657 C31.3362,9.1657 28.6662,7.4977 28.6662,5.9997 C28.6662,5.8417 28.7032,5.6847 28.7582,5.5287 C28.7662,5.5047 28.7712,5.4797 28.7822,5.4547 C28.8392,5.3127 28.9242,5.1737 29.0232,5.0357 C29.0482,5.0017 29.0722,4.9667 29.1002,4.9317 C29.2122,4.7927 29.3422,4.6567 29.4922,4.5257 C29.5142,4.5067 29.5382,4.4877 29.5602,4.4677 C30.4652,3.7167 31.9732,3.1227 33.7202,2.9167 C34.1802,2.8637 34.6622,2.8327 35.1662,2.8327 C38.9972,2.8327 41.6662,4.5017 41.6662,5.9997 L41.6662,5.9997 Z M41.6662,9.3647 C41.6292,10.8537 38.9702,12.4997 35.1662,12.4997 C31.3632,12.4997 28.7032,10.8537 28.6672,9.3647 C28.7222,9.4037 28.7852,9.4387 28.8422,9.4767 C28.9632,9.5587 29.0842,9.6397 29.2142,9.7157 C29.2972,9.7657 29.3852,9.8117 29.4722,9.8587 C29.5982,9.9267 29.7262,9.9947 29.8592,10.0587 C29.9542,10.1047 30.0522,10.1477 30.1502,10.1907 C30.2852,10.2497 30.4222,10.3067 30.5632,10.3617 C30.6672,10.4017 30.7722,10.4397 30.8792,10.4767 C31.0242,10.5277 31.1712,10.5747 31.3212,10.6197 C31.4322,10.6537 31.5432,10.6867 31.6572,10.7177 C31.8132,10.7587 31.9712,10.7967 32.1322,10.8327 C32.2472,10.8587 32.3612,10.8857 32.4782,10.9087 C32.6492,10.9417 32.8252,10.9697 33.0012,10.9967 C33.1142,11.0147 33.2242,11.0337 33.3392,11.0487 C33.5362,11.0737 33.7382,11.0917 33.9402,11.1087 C34.0392,11.1177 34.1372,11.1297 34.2382,11.1357 C34.5422,11.1547 34.8522,11.1657 35.1662,11.1657 C35.4812,11.1657 35.7902,11.1547 36.0952,11.1357 C36.1852,11.1297 36.2722,11.1197 36.3612,11.1117 C36.4402,11.1057 36.5182,11.0987 36.5972,11.0907 C36.7302,11.0767 36.8632,11.0657 36.9932,11.0487 C37.1082,11.0337 37.2192,11.0147 37.3322,10.9967 C37.5082,10.9697 37.6832,10.9417 37.8552,10.9087 C37.9722,10.8857 38.0862,10.8587 38.2002,10.8327 C38.3612,10.7967 38.5202,10.7587 38.6762,10.7177 C38.7892,10.6867 38.9012,10.6537 39.0122,10.6197 C39.1622,10.5747 39.3092,10.5277 39.4532,10.4767 C39.5602,10.4397 39.6652,10.4017 39.7692,10.3617 C39.9102,10.3067 40.0482,10.2497 40.1832,10.1907 C40.2812,10.1477 40.3792,10.1047 40.4732,10.0587 C40.6072,9.9947 40.7342,9.9267 40.8612,9.8587 C40.8872,9.8447 40.9142,9.8317 40.9392,9.8177 C40.9472,9.8137 40.9542,9.8107 40.9612,9.8067 C41.0142,9.7767 41.0672,9.7467 41.1192,9.7157 C41.2482,9.6397 41.3702,9.5587 41.4912,9.4767 C41.5482,9.4387 41.6112,9.4037 41.6662,9.3647 L41.6662,9.3647 Z M58.3332,14.3327 C58.3332,14.5087 58.2932,14.6867 58.2222,14.8637 C58.1702,14.9957 58.0952,15.1287 58.0032,15.2607 C57.9772,15.2987 57.9492,15.3357 57.9202,15.3737 C57.8192,15.5037 57.7012,15.6327 57.5642,15.7597 C57.5292,15.7907 57.4892,15.8217 57.4522,15.8537 C57.3142,15.9707 57.1622,16.0857 56.9942,16.1957 C56.9482,16.2267 56.9002,16.2567 56.8502,16.2867 C56.6822,16.3897 56.4982,16.4877 56.3042,16.5817 C56.2362,16.6147 56.1702,16.6487 56.0982,16.6807 C55.8872,16.7747 55.6582,16.8617 55.4202,16.9427 C55.3322,16.9727 55.2422,17.0017 55.1512,17.0297 C54.9002,17.1067 54.6382,17.1757 54.3622,17.2357 C54.2772,17.2547 54.1892,17.2707 54.1022,17.2867 C53.7982,17.3447 53.4852,17.3957 53.1542,17.4297 C53.1002,17.4357 53.0432,17.4387 52.9882,17.4437 C52.6172,17.4767 52.2342,17.4997 51.8332,17.4997 C48.0022,17.4997 45.3332,15.8307 45.3332,14.3327 C45.3332,14.1867 45.3662,14.0407 45.4142,13.8957 C45.4232,13.8667 45.4302,13.8387 45.4412,13.8107 C45.4942,13.6747 45.5692,13.5407 45.6602,13.4097 C45.6822,13.3767 45.7072,13.3447 45.7312,13.3127 C45.8372,13.1757 45.9552,13.0397 46.0982,12.9097 C46.1022,12.9057 46.1072,12.9027 46.1122,12.8987 C46.9252,12.1667 48.3102,11.5677 49.9472,11.3107 C50.5362,11.2197 51.1662,11.1657 51.8332,11.1657 C55.6632,11.1657 58.3332,12.8347 58.3332,14.3327 L58.3332,14.3327 Z M58.3332,17.6977 C58.2962,19.1877 55.6372,20.8327 51.8332,20.8327 C48.0302,20.8327 45.3702,19.1877 45.3332,17.6977 C45.3902,17.7387 45.4552,17.7747 45.5142,17.8137 C45.6332,17.8937 45.7522,17.9737 45.8782,18.0487 C45.9642,18.0987 46.0542,18.1457 46.1432,18.1947 C46.2672,18.2617 46.3922,18.3287 46.5232,18.3917 C46.6202,18.4377 46.7202,18.4817 46.8202,18.5257 C46.9532,18.5837 47.0882,18.6407 47.2272,18.6937 C47.3332,18.7347 47.4402,18.7737 47.5492,18.8117 C47.6922,18.8617 47.8372,18.9077 47.9842,18.9527 C48.0972,18.9867 48.2102,19.0197 48.3262,19.0507 C48.4802,19.0927 48.6372,19.1297 48.7962,19.1657 C48.9122,19.1917 49.0272,19.2187 49.1462,19.2417 C49.3162,19.2757 49.4902,19.3027 49.6652,19.3297 C49.7792,19.3477 49.8912,19.3677 50.0072,19.3827 C50.2022,19.4077 50.4032,19.4247 50.6052,19.4417 C50.7052,19.4507 50.8032,19.4627 50.9052,19.4687 C51.2092,19.4887 51.5192,19.4997 51.8332,19.4997 C52.1482,19.4997 52.4572,19.4887 52.7622,19.4687 C52.8382,19.4647 52.9102,19.4557 52.9852,19.4497 C53.0672,19.4427 53.1482,19.4347 53.2292,19.4267 C53.3742,19.4127 53.5192,19.4007 53.6602,19.3827 C53.7752,19.3677 53.8872,19.3477 53.9992,19.3307 C54.0872,19.3167 54.1752,19.3057 54.2622,19.2907 C54.2762,19.2877 54.2912,19.2867 54.3062,19.2837 C54.3792,19.2707 54.4502,19.2557 54.5222,19.2417 C54.6392,19.2187 54.7532,19.1927 54.8682,19.1657 C55.0282,19.1297 55.1872,19.0927 55.3422,19.0507 C55.4562,19.0197 55.5682,18.9867 55.6792,18.9537 C55.8292,18.9087 55.9762,18.8607 56.1192,18.8107 C56.2242,18.7747 56.3272,18.7377 56.4292,18.6977 C56.4552,18.6877 56.4822,18.6787 56.5082,18.6687 C56.6242,18.6227 56.7362,18.5737 56.8472,18.5247 C56.9472,18.4807 57.0472,18.4377 57.1432,18.3917 C57.2232,18.3527 57.3022,18.3137 57.3802,18.2737 C57.4322,18.2467 57.4812,18.2177 57.5322,18.1897 C57.6182,18.1427 57.7062,18.0967 57.7892,18.0477 C57.9132,17.9747 58.0302,17.8957 58.1472,17.8177 C58.1502,17.8157 58.1542,17.8137 58.1582,17.8107 C58.2062,17.7787 58.2592,17.7487 58.3062,17.7157 C58.3152,17.7097 58.3252,17.7037 58.3332,17.6977 L58.3332,17.6977 Z M74.9992,22.6657 C74.9992,22.9097 74.9222,23.1567 74.7882,23.4007 C74.7272,23.5117 74.6552,23.6227 74.5672,23.7327 C74.5402,23.7667 74.5132,23.8007 74.4832,23.8337 C74.3802,23.9507 74.2602,24.0667 74.1272,24.1797 C74.0882,24.2127 74.0512,24.2457 74.0092,24.2787 C73.8582,24.3987 73.6902,24.5147 73.5062,24.6267 C73.4582,24.6557 73.4082,24.6837 73.3572,24.7127 C73.1612,24.8237 72.9532,24.9327 72.7262,25.0317 C72.6882,25.0487 72.6452,25.0637 72.6062,25.0797 C72.3962,25.1677 72.1732,25.2487 71.9392,25.3237 C71.8772,25.3437 71.8182,25.3647 71.7552,25.3837 C71.4952,25.4607 71.2202,25.5287 70.9352,25.5877 C70.8602,25.6037 70.7842,25.6187 70.7082,25.6327 C70.4092,25.6877 70.0992,25.7347 69.7762,25.7667 C69.7162,25.7727 69.6552,25.7767 69.5952,25.7817 C69.2422,25.8127 68.8792,25.8327 68.4992,25.8327 C64.6692,25.8327 61.9992,24.1647 61.9992,22.6657 C61.9992,22.5297 62.0292,22.3927 62.0712,22.2577 C62.0812,22.2257 62.0892,22.1947 62.1012,22.1627 C62.1502,22.0337 62.2162,21.9057 62.3002,21.7797 C62.3182,21.7507 62.3412,21.7227 62.3622,21.6947 C62.4492,21.5747 62.5482,21.4567 62.6652,21.3417 C62.6782,21.3287 62.6892,21.3157 62.7022,21.3027 C62.8442,21.1677 63.0052,21.0367 63.1832,20.9107 C63.1912,20.9057 63.1982,20.9007 63.2062,20.8957 C63.9482,20.3787 64.9872,19.9567 66.1902,19.7207 C66.8962,19.5817 67.6682,19.4997 68.4992,19.4997 C72.3292,19.4997 74.9992,21.1687 74.9992,22.6657 L74.9992,22.6657 Z M62.1892,26.1537 C62.3042,26.2307 62.4202,26.3077 62.5432,26.3807 C62.6302,26.4327 62.7212,26.4797 62.8112,26.5287 C62.9352,26.5957 63.0592,26.6627 63.1902,26.7247 C63.2862,26.7717 63.3862,26.8147 63.4862,26.8587 C63.6192,26.9167 63.7552,26.9737 63.8942,27.0277 C63.9992,27.0677 64.1052,27.1067 64.2132,27.1447 C64.3572,27.1947 64.5042,27.2417 64.6532,27.2867 C64.7642,27.3207 64.8762,27.3537 64.9912,27.3847 C65.1462,27.4257 65.3042,27.4637 65.4652,27.4997 C65.5792,27.5257 65.6942,27.5527 65.8112,27.5757 C65.9822,27.6087 66.1582,27.6367 66.3342,27.6637 C66.4472,27.6817 66.5572,27.7007 66.6722,27.7157 C66.8692,27.7407 67.0712,27.7587 67.2732,27.7757 C67.3722,27.7847 67.4702,27.7967 67.5712,27.8027 C67.8752,27.8217 68.1852,27.8327 68.4992,27.8327 C68.8142,27.8327 69.1232,27.8217 69.4282,27.8027 C69.4902,27.7987 69.5492,27.7917 69.6102,27.7877 C69.6992,27.7807 69.7842,27.7707 69.8722,27.7627 C70.0242,27.7487 70.1772,27.7347 70.3262,27.7157 C70.4412,27.7007 70.5532,27.6817 70.6652,27.6637 C70.6802,27.6617 70.6952,27.6597 70.7102,27.6567 C70.7832,27.6457 70.8592,27.6357 70.9322,27.6237 C71.0182,27.6077 71.1032,27.5917 71.1882,27.5757 C71.3052,27.5527 71.4192,27.5257 71.5342,27.4997 C71.6592,27.4717 71.7862,27.4447 71.9092,27.4127 C71.9552,27.4007 71.9992,27.3877 72.0452,27.3757 C72.1472,27.3477 72.2462,27.3167 72.3462,27.2867 C72.4952,27.2417 72.6412,27.1947 72.7852,27.1447 C72.8362,27.1267 72.8902,27.1127 72.9412,27.0937 C73.0022,27.0717 73.0592,27.0457 73.1202,27.0217 C73.2542,26.9697 73.3842,26.9157 73.5132,26.8587 C73.6032,26.8187 73.6952,26.7797 73.7832,26.7387 C73.8912,26.6867 73.9932,26.6327 74.0962,26.5787 C74.1282,26.5627 74.1572,26.5457 74.1882,26.5287 C74.2782,26.4797 74.3692,26.4327 74.4552,26.3807 C74.5062,26.3517 74.5552,26.3217 74.6042,26.2907 C74.7092,26.2267 74.8082,26.1587 74.9072,26.0907 C74.9362,26.0707 74.9702,26.0517 74.9992,26.0317 C74.9622,27.5207 72.3032,29.1657 68.4992,29.1657 C64.6962,29.1657 62.0362,27.5207 61.9992,26.0317 C62.0592,26.0737 62.1272,26.1117 62.1892,26.1537 L62.1892,26.1537 Z M90.8332,30.9997 C90.8332,31.2167 90.7712,31.4377 90.6632,31.6557 C90.6052,31.7747 90.5322,31.8927 90.4412,32.0117 C90.4232,32.0357 90.4072,32.0597 90.3882,32.0837 C90.2672,32.2297 90.1252,32.3737 89.9592,32.5147 C89.9532,32.5187 89.9492,32.5227 89.9432,32.5277 C89.2342,33.1187 88.1232,33.6427 86.7192,33.9307 C86.6932,33.9357 86.6672,33.9407 86.6412,33.9457 C86.3102,34.0117 85.9622,34.0637 85.6002,34.1007 C85.5612,34.1047 85.5202,34.1067 85.4802,34.1107 C85.1112,34.1447 84.7302,34.1657 84.3332,34.1657 C80.5032,34.1657 77.8332,32.4977 77.8332,30.9997 C77.8332,30.8617 77.8652,30.7237 77.9072,30.5867 C77.9182,30.5507 77.9272,30.5147 77.9412,30.4787 C77.9882,30.3567 78.0532,30.2357 78.1302,30.1167 C78.1632,30.0667 78.2022,30.0177 78.2412,29.9677 C78.3082,29.8797 78.3842,29.7937 78.4682,29.7087 C78.5192,29.6557 78.5722,29.6027 78.6292,29.5507 C78.7422,29.4507 78.8642,29.3527 78.9972,29.2577 C79.0452,29.2247 79.0932,29.1907 79.1422,29.1577 C79.3172,29.0427 79.5012,28.9307 79.7042,28.8277 C79.7132,28.8227 79.7242,28.8177 79.7332,28.8137 C79.9572,28.6997 80.1972,28.5937 80.4512,28.4967 C80.4552,28.4957 80.4582,28.4937 80.4622,28.4927 C80.7242,28.3937 81.0002,28.3037 81.2902,28.2237 C81.2962,28.2227 81.3022,28.2207 81.3082,28.2197 C81.5962,28.1407 81.8972,28.0727 82.2082,28.0177 C82.8642,27.9007 83.5752,27.8327 84.3332,27.8327 C88.1632,27.8327 90.8332,29.5017 90.8332,30.9997 L90.8332,30.9997 Z M90.8332,34.3647 C90.7962,35.8537 88.1372,37.4997 84.3332,37.4997 C80.5302,37.4997 77.8702,35.8537 77.8332,34.3647 C77.8922,34.4067 77.9592,34.4437 78.0202,34.4847 C78.1372,34.5627 78.2532,34.6407 78.3782,34.7147 C78.4642,34.7657 78.5542,34.8127 78.6442,34.8617 C78.7682,34.9287 78.8932,34.9957 79.0242,35.0587 C79.1202,35.1047 79.2192,35.1477 79.3192,35.1907 C79.4532,35.2497 79.5892,35.3067 79.7292,35.3617 C79.8342,35.4017 79.9402,35.4397 80.0472,35.4777 C80.1912,35.5277 80.3382,35.5747 80.4872,35.6197 C80.5982,35.6537 80.7102,35.6867 80.8252,35.7177 C80.9802,35.7587 81.1382,35.7967 81.2992,35.8327 C81.4132,35.8587 81.5282,35.8857 81.6452,35.9087 C81.8162,35.9417 81.9922,35.9697 82.1682,35.9967 C82.2812,36.0147 82.3912,36.0337 82.5062,36.0487 C82.7032,36.0737 82.9052,36.0917 83.1072,36.1087 C83.2062,36.1177 83.3042,36.1297 83.4052,36.1357 C83.7092,36.1547 84.0192,36.1657 84.3332,36.1657 C84.6482,36.1657 84.9572,36.1547 85.2622,36.1357 C85.3262,36.1317 85.3882,36.1247 85.4502,36.1197 C85.5522,36.1117 85.6512,36.1017 85.7512,36.0917 C85.8882,36.0777 86.0262,36.0657 86.1602,36.0487 C86.2752,36.0337 86.3872,36.0147 86.4992,35.9967 C86.5082,35.9957 86.5172,35.9947 86.5252,35.9927 C86.6282,35.9767 86.7332,35.9637 86.8342,35.9457 C86.8982,35.9347 86.9592,35.9207 87.0222,35.9087 C87.1392,35.8857 87.2532,35.8587 87.3682,35.8327 C87.4872,35.8057 87.6082,35.7817 87.7242,35.7517 C87.8082,35.7297 87.8922,35.7077 87.9742,35.6847 C88.0452,35.6657 88.1102,35.6407 88.1792,35.6197 C88.3192,35.5777 88.4562,35.5347 88.5912,35.4877 C88.7582,35.4307 88.9232,35.3727 89.0822,35.3087 C89.1592,35.2777 89.2312,35.2427 89.3062,35.2107 C89.3272,35.2007 89.3492,35.1917 89.3712,35.1817 C89.4422,35.1497 89.5152,35.1207 89.5852,35.0877 C89.7762,34.9987 89.9572,34.9027 90.1342,34.8037 C90.1862,34.7737 90.2382,34.7447 90.2892,34.7147 C90.3322,34.6887 90.3752,34.6647 90.4172,34.6377 C90.5582,34.5507 90.6962,34.4627 90.8272,34.3687 C90.8292,34.3667 90.8312,34.3657 90.8332,34.3647 L90.8332,34.3647 Z M69.4992,54.0817 L98.3332,37.7167 L98.3332,59.3327 C98.3332,59.4087 98.3612,59.4757 98.3762,59.5467 L69.4992,75.1547 L69.4992,54.0817 Z M2.0002,20.1447 L67.4992,54.1077 L67.4992,75.1877 L2.0002,41.2247 L2.0002,20.1447 Z M100.3332,35.9807 C100.3312,35.8637 100.3032,35.7537 100.2632,35.6487 C100.2522,35.6207 100.2402,35.5947 100.2262,35.5677 C100.1842,35.4807 100.1312,35.4007 100.0662,35.3297 C100.0522,35.3147 100.0422,35.2977 100.0282,35.2837 C99.9592,35.2167 99.8822,35.1577 99.7932,35.1117 L92.8332,31.5027 L92.8332,30.9997 C92.8332,28.1027 89.1002,25.8327 84.3332,25.8327 C83.5962,25.8327 82.8882,25.8937 82.2112,25.9957 L76.9992,23.2927 L76.9992,22.6657 C76.9992,19.7697 73.2662,17.4997 68.4992,17.4997 C67.6962,17.4997 66.9262,17.5687 66.1942,17.6897 L60.3332,14.6517 L60.3332,14.3327 C60.3332,11.4357 56.6002,9.1657 51.8332,9.1657 C51.1972,9.1657 50.5802,9.2097 49.9872,9.2867 L43.6662,6.0097 L43.6662,5.9997 C43.6662,3.1027 39.9332,0.8327 35.1662,0.8327 C34.7042,0.8327 34.2562,0.8607 33.8162,0.9017 L32.2932,0.1117 C31.9932,-0.0443 31.6342,-0.0363 31.3392,0.1297 L0.5062,17.6297 C0.4282,17.6747 0.3582,17.7287 0.2962,17.7907 C0.2952,17.7917 0.2932,17.7917 0.2922,17.7927 C0.2112,17.8747 0.1512,17.9717 0.1022,18.0747 C0.0902,18.1017 0.0792,18.1287 0.0692,18.1577 C0.0322,18.2587 0.0082,18.3637 0.0052,18.4737 C0.0052,18.4827 0.0002,18.4907 0.0002,18.4997 L0.0002,41.8327 C0.0002,41.8807 0.0212,41.9227 0.0282,41.9697 C0.0372,42.0407 0.0442,42.1097 0.0692,42.1767 C0.0922,42.2377 0.1262,42.2887 0.1592,42.3427 C0.1932,42.3977 0.2222,42.4527 0.2662,42.5007 C0.3142,42.5537 0.3722,42.5917 0.4302,42.6327 C0.4692,42.6597 0.4962,42.6977 0.5392,42.7207 L68.0392,77.7207 C68.0542,77.7277 68.0702,77.7307 68.0852,77.7377 C68.1072,77.7477 68.1302,77.7537 68.1522,77.7627 C68.1582,77.7647 68.1622,77.7667 68.1672,77.7687 C68.1962,77.7787 68.2222,77.7917 68.2512,77.7997 C68.3322,77.8207 68.4152,77.8327 68.4982,77.8327 L68.4992,77.8327 L68.4992,77.8327 L68.5002,77.8327 L68.5002,77.8327 C68.5852,77.8327 68.6702,77.8207 68.7542,77.7977 C68.7822,77.7907 68.8082,77.7767 68.8362,77.7667 C68.8392,77.7657 68.8412,77.7647 68.8442,77.7627 C68.8692,77.7537 68.8932,77.7457 68.9182,77.7347 C68.9362,77.7257 68.9562,77.7227 68.9752,77.7127 L99.8092,61.0467 C100.2742,60.7947 100.4492,60.2297 100.2332,59.7547 C100.2942,59.6257 100.3332,59.4847 100.3332,59.3327 L100.3332,35.9997 C100.3332,35.9977 100.3322,35.9947 100.3322,35.9927 C100.3322,35.9887 100.3332,35.9847 100.3332,35.9807 L100.3332,35.9807 Z M34.3332,29.9997 C30.5292,29.9997 27.8702,28.3537 27.8332,26.8647 C27.8882,26.9037 27.9512,26.9387 28.0092,26.9767 C28.1292,27.0587 28.2512,27.1397 28.3802,27.2157 C28.4632,27.2657 28.5522,27.3117 28.6382,27.3587 C28.7652,27.4267 28.8922,27.4947 29.0262,27.5587 C29.1202,27.6047 29.2182,27.6477 29.3162,27.6907 C29.4512,27.7497 29.5892,27.8067 29.7302,27.8617 C29.8342,27.9017 29.9392,27.9397 30.0462,27.9767 C30.1902,28.0277 30.3372,28.0747 30.4872,28.1197 C30.5982,28.1537 30.7102,28.1867 30.8242,28.2177 C30.9792,28.2587 31.1382,28.2967 31.2992,28.3327 C31.4132,28.3587 31.5272,28.3857 31.6442,28.4087 C31.8162,28.4417 31.9912,28.4697 32.1672,28.4967 C32.2802,28.5147 32.3912,28.5337 32.5062,28.5487 C32.7022,28.5737 32.9042,28.5917 33.1062,28.6087 C33.2062,28.6177 33.3032,28.6297 33.4042,28.6357 C33.7092,28.6547 34.0182,28.6657 34.3332,28.6657 C34.6472,28.6657 34.9572,28.6547 35.2622,28.6357 C35.3632,28.6297 35.4602,28.6177 35.5592,28.6087 C35.7622,28.5917 35.9632,28.5737 36.1602,28.5487 C36.2752,28.5337 36.3862,28.5147 36.4982,28.4967 C36.6752,28.4697 36.8502,28.4417 37.0212,28.4087 C37.1382,28.3857 37.2522,28.3587 37.3672,28.3327 C37.5282,28.2967 37.6862,28.2587 37.8422,28.2177 C37.9562,28.1867 38.0672,28.1537 38.1792,28.1197 C38.3282,28.0747 38.4752,28.0277 38.6202,27.9767 C38.7272,27.9397 38.8322,27.9017 38.9362,27.8617 C39.0772,27.8067 39.2142,27.7497 39.3492,27.6907 C39.4482,27.6477 39.5452,27.6047 39.6402,27.5587 C39.7732,27.4947 39.9012,27.4267 40.0272,27.3587 C40.1142,27.3117 40.2022,27.2657 40.2852,27.2157 C40.4152,27.1397 40.5362,27.0587 40.6572,26.9767 C40.7142,26.9387 40.7772,26.9037 40.8322,26.8647 C40.7962,28.3537 38.1372,29.9997 34.3332,29.9997 L34.3332,29.9997 Z M34.3332,20.3327 C38.1632,20.3327 40.8332,22.0017 40.8332,23.4997 C40.8332,24.9977 38.1632,26.6657 34.3332,26.6657 C30.5022,26.6657 27.8332,24.9977 27.8332,23.4997 C27.8332,22.0017 30.5022,20.3327 34.3332,20.3327 L34.3332,20.3327 Z M42.8332,23.4997 C42.8332,20.6027 39.0992,18.3327 34.3332,18.3327 C29.5662,18.3327 25.8332,20.6027 25.8332,23.4997 L25.8332,26.8327 C25.8332,29.7297 29.5662,31.9997 34.3332,31.9997 C39.0992,31.9997 42.8332,29.7297 42.8332,26.8327 L42.8332,23.4997 Z M50.9992,38.3327 C47.1962,38.3327 44.5382,36.6877 44.5002,35.1977 C44.5552,35.2367 44.6172,35.2717 44.6742,35.3097 C44.7952,35.3917 44.9172,35.4727 45.0472,35.5497 C45.1302,35.5987 45.2182,35.6447 45.3042,35.6917 C45.4312,35.7607 45.5592,35.8287 45.6932,35.8927 C45.7872,35.9377 45.8852,35.9807 45.9832,36.0237 C46.1182,36.0827 46.2562,36.1407 46.3972,36.1957 C46.5012,36.2347 46.6062,36.2727 46.7122,36.3107 C46.8572,36.3607 47.0052,36.4087 47.1552,36.4537 C47.2652,36.4877 47.3762,36.5197 47.4902,36.5507 C47.6462,36.5927 47.8052,36.6307 47.9672,36.6667 C48.0812,36.6927 48.1942,36.7187 48.3112,36.7417 C48.4822,36.7757 48.6582,36.8037 48.8352,36.8307 C48.9472,36.8477 49.0582,36.8677 49.1722,36.8827 C49.3692,36.9077 49.5712,36.9257 49.7732,36.9427 C49.8732,36.9507 49.9702,36.9627 50.0712,36.9687 C50.3752,36.9887 50.6852,36.9997 50.9992,36.9997 C51.3142,36.9997 51.6232,36.9887 51.9282,36.9687 C52.0292,36.9627 52.1262,36.9507 52.2262,36.9427 C52.4282,36.9257 52.6302,36.9077 52.8262,36.8827 C52.9412,36.8677 53.0532,36.8477 53.1652,36.8307 C53.3412,36.8037 53.5162,36.7757 53.6882,36.7417 C53.8052,36.7187 53.9192,36.6927 54.0342,36.6657 C54.1942,36.6297 54.3532,36.5927 54.5082,36.5507 C54.6222,36.5197 54.7342,36.4867 54.8462,36.4537 C54.9952,36.4087 55.1422,36.3607 55.2852,36.3107 C55.3932,36.2737 55.4992,36.2347 55.6032,36.1947 C55.7432,36.1407 55.8792,36.0837 56.0132,36.0247 C56.1132,35.9807 56.2132,35.9377 56.3092,35.8917 C56.4392,35.8287 56.5642,35.7617 56.6882,35.6947 C56.7782,35.6457 56.8692,35.5987 56.9552,35.5477 C57.0792,35.4747 57.1962,35.3957 57.3132,35.3177 C57.3742,35.2767 57.4412,35.2397 57.4992,35.1977 C57.4622,36.6877 54.8032,38.3327 50.9992,38.3327 L50.9992,38.3327 Z M50.9992,28.6657 C54.8292,28.6657 57.4992,30.3347 57.4992,31.8327 C57.4992,33.3307 54.8292,34.9997 50.9992,34.9997 C47.1692,34.9997 44.5002,33.3307 44.5002,31.8327 C44.5002,30.3347 47.1692,28.6657 50.9992,28.6657 L50.9992,28.6657 Z M59.4992,31.8327 C59.4992,28.9357 55.7662,26.6657 50.9992,26.6657 C46.2332,26.6657 42.5002,28.9357 42.5002,31.8327 L42.5002,35.1657 C42.5002,38.0637 46.2332,40.3327 50.9992,40.3327 C55.7662,40.3327 59.4992,38.0637 59.4992,35.1657 L59.4992,31.8327 Z M67.6662,46.6667 C63.8632,46.6667 61.2032,45.0197 61.1662,43.5307 C61.2242,43.5727 61.2902,43.6087 61.3512,43.6497 C61.4692,43.7287 61.5872,43.8077 61.7132,43.8817 C61.7962,43.9317 61.8852,43.9777 61.9712,44.0247 C62.0982,44.0937 62.2262,44.1617 62.3602,44.2257 C62.4532,44.2707 62.5502,44.3127 62.6472,44.3557 C62.7832,44.4157 62.9232,44.4737 63.0662,44.5287 C63.1682,44.5677 63.2712,44.6057 63.3752,44.6427 C63.5232,44.6937 63.6732,44.7417 63.8252,44.7877 C63.9342,44.8207 64.0422,44.8527 64.1542,44.8827 C64.3122,44.9257 64.4742,44.9637 64.6372,45.0007 C64.7492,45.0257 64.8612,45.0517 64.9762,45.0747 C65.1492,45.1087 65.3272,45.1367 65.5052,45.1647 C65.6162,45.1817 65.7252,45.2007 65.8382,45.2147 C66.0372,45.2407 66.2422,45.2587 66.4462,45.2757 C66.5432,45.2837 66.6382,45.2957 66.7372,45.3017 C67.0422,45.3217 67.3512,45.3327 67.6662,45.3327 C67.9812,45.3327 68.2912,45.3217 68.5962,45.3017 C68.6952,45.2957 68.7892,45.2837 68.8872,45.2757 C69.0912,45.2587 69.2952,45.2407 69.4942,45.2147 C69.6082,45.2007 69.7172,45.1817 69.8282,45.1647 C70.0062,45.1367 70.1832,45.1087 70.3572,45.0747 C70.4712,45.0517 70.5832,45.0257 70.6962,45.0007 C70.8592,44.9637 71.0212,44.9257 71.1792,44.8827 C71.2902,44.8527 71.3992,44.8207 71.5072,44.7877 C71.6602,44.7417 71.8102,44.6937 71.9572,44.6427 C72.0622,44.6057 72.1652,44.5677 72.2672,44.5287 C72.4092,44.4737 72.5492,44.4157 72.6852,44.3557 C72.7832,44.3127 72.8792,44.2707 72.9732,44.2257 C73.1072,44.1617 73.2342,44.0937 73.3612,44.0247 C73.4482,43.9777 73.5362,43.9317 73.6202,43.8817 C73.7462,43.8077 73.8642,43.7287 73.9822,43.6497 C74.0422,43.6087 74.1082,43.5727 74.1662,43.5307 C74.1292,45.0197 71.4702,46.6667 67.6662,46.6667 L67.6662,46.6667 Z M67.6662,36.9997 C71.4962,36.9997 74.1662,38.6687 74.1662,40.1657 C74.1662,41.6637 71.4962,43.3327 67.6662,43.3327 C63.8362,43.3327 61.1662,41.6637 61.1662,40.1657 C61.1662,38.6687 63.8362,36.9997 67.6662,36.9997 L67.6662,36.9997 Z M76.1662,43.4997 L76.1662,40.1657 C76.1662,37.2697 72.4332,34.9997 67.6662,34.9997 C62.9002,34.9997 59.1662,37.2697 59.1662,40.1657 L59.1662,43.4997 C59.1662,46.3967 62.9002,48.6667 67.6662,48.6667 C72.4332,48.6667 76.1662,46.3967 76.1662,43.4997 L76.1662,43.4997 Z"></path></g></g></svg>